<svg width="38" height="38" viewBox="0 0 38 38" fill="none" xmlns="http://www.w3.org/2000/svg">
<rect x="0.375" y="0.375" width="37.25" height="37.25" rx="3.625" stroke="#127CD0" stroke-width="0.75"/>
<path d="M30.7818 17.1695C31.3576 18.0011 31.3576 19.1237 30.7818 19.9539C28.9685 22.568 24.6179 27.9503 19.5386 27.9503C14.4593 27.9503 10.1088 22.568 8.29543 19.9539C8.01533 19.5557 7.86328 19.0659 7.86328 18.5617C7.86328 18.0575 8.01533 17.5677 8.29543 17.1695C10.1088 14.5555 14.4593 9.1731 19.5386 9.1731C24.6179 9.1731 28.9685 14.5555 30.7818 17.1695V17.1695Z" stroke="#127CD0" stroke-width="1.2" stroke-linecap="round" stroke-linejoin="round"/>
<path d="M19.5387 22.5845C21.5511 22.5845 23.1824 20.783 23.1824 18.5608C23.1824 16.3386 21.5511 14.5371 19.5387 14.5371C17.5264 14.5371 15.895 16.3386 15.895 18.5608C15.895 20.783 17.5264 22.5845 19.5387 22.5845Z" stroke="#127CD0" stroke-width="1.2" stroke-linecap="round" stroke-linejoin="round"/>
</svg>
