<svg width="29" height="29" viewBox="0 0 29 29" fill="none" xmlns="http://www.w3.org/2000/svg">
<rect x="0.375" y="0.375" width="28.25" height="28.25" rx="3.625" fill="white" stroke="#CBD5DC" stroke-width="0.75"/>
<path d="M20.5799 13.9747C20.8959 14.388 20.8959 14.946 20.5799 15.3587C19.5845 16.658 17.1965 19.3333 14.4085 19.3333C11.6205 19.3333 9.23254 16.658 8.2372 15.3587C8.08346 15.1608 8 14.9173 8 14.6667C8 14.4161 8.08346 14.1726 8.2372 13.9747C9.23254 12.6753 11.6205 10 14.4085 10C17.1965 10 19.5845 12.6753 20.5799 13.9747V13.9747Z" stroke="#EE5D22" stroke-width="1.2" stroke-linecap="round" stroke-linejoin="round"/>
<path d="M14.4087 16.6667C15.5133 16.6667 16.4087 15.7713 16.4087 14.6667C16.4087 13.5622 15.5133 12.6667 14.4087 12.6667C13.3041 12.6667 12.4087 13.5622 12.4087 14.6667C12.4087 15.7713 13.3041 16.6667 14.4087 16.6667Z" stroke="#EE5D22" stroke-width="1.2" stroke-linecap="round" stroke-linejoin="round"/>
</svg>
